<svg viewBox="0 0 2000 1400" xmlns="http://www.w3.org/2000/svg"><path fill="#fff" d="M0 0h2000v1400H0z"/><rect x="1312" y="712" width="13" height="25" fill="#c7f5fe" rx="0" transform="matrix(1.01523 .33705 -.01846 .97887 49.778 -75.807)"/><rect x="1495" y="1082" width="7" height="9" fill="#F3F798" rx="0" transform="matrix(.07238 .96349 -1.01577 .29457 2398.81 -861.325)"/><rect x="1196" y="865" width="13" height="38" fill="#EAB4F8" rx="0" transform="matrix(.3116 1.02999 -.96 .03597 1717.78 -86.537)"/><rect x="970" y="1273" width="10" height="11" fill="#c7f5fe" rx="0" transform="matrix(.35242 .8272 -.96212 .57921 1721.31 -405.574)"/><rect x="592" y="1158" width="13" height="20" fill="#FCC8F8" rx="0" transform="matrix(-.36631 .6997 -1.02235 -.7771 2298.996 1839.86)"/><rect x="756" y="1235" width="13" height="33" fill="#EAB4F8" rx="0" transform="matrix(.22096 1.0536 -.9298 .09218 1490.694 595.322)"/><rect x="880" y="885" width="7" height="9" fill="#EAB4F8" rx="0" transform="matrix(-.18558 .95073 -.98793 -.32736 2124.843 247.861)"/><rect x="432" y="253" width="12" height="33" fill="#F3F798" rx="0" transform="matrix(-.98857 .25882 -.17431 -.96593 894.392 416.454)"/><rect x="1696" y="861" width="13" height="32" fill="#FCC8F8" rx="0" transform="matrix(-.95882 .19127 -.29538 -.98402 3727.584 1295.293)"/><rect x="882" y="102" width="12" height="19" fill="#F3F798" rx="0" transform="matrix(.94595 .29242 -.32571 .95645 82.635 -270.31)"/><rect x="1788" y="947" width="12" height="34" fill="#F3F798" rx="0" transform="matrix(-.98882 -.07106 -.06861 -1.01624 3565.29 2419.854)"/><rect x="152" y="1352" width="13" height="15" fill="#FCC8F8" rx="0" transform="matrix(-.32926 .79912 -1.00326 -.60218 1991.95 2057.04)"/><rect x="1798" y="1235" width="10" height="10" fill="#F3F798" rx="0" transform="matrix(.83102 .59356 -.54095 .81697 844.794 -589.837)"/><rect x="427" y="1293" width="12" height="30" fill="#FCC8F8" rx="0" transform="matrix(.93223 .48182 -.32218 .90617 352.306 14.064)"/><rect x="401" y="879" width="12" height="22" fill="#c7f5fe" rx="0" transform="matrix(-.70747 .66954 -.70784 -.7436 1401.542 1265.087)"/><rect x="302" y="870" width="8" height="13" fill="#FCC8F8" rx="0" transform="matrix(1.0739 .41919 .02648 .94151 156.7 -.713)"/><rect x="825" y="566" width="9" height="11" fill="#EAB4F8" rx="0" transform="matrix(.6689 .75517 -.74274 .65646 727.56 -459.046)"/><rect x="309" y="394" width="9" height="10" fill="#F3F798" rx="0" transform="matrix(.40968 .8215 -.91964 .59685 539.996 -151.962)"/><rect x="1781" y="577" width="7" height="14" fill="#F3F798" rx="0" transform="matrix(.9157 .44697 -.27354 .95853 98.847 -158.946)"/><rect x="621" y="478" width="7" height="12" fill="#c7f5fe" rx="0" transform="matrix(-.80307 .34044 -.60504 -.98872 1430.642 940.863)"/><rect x="421" y="265" width="7" height="8" fill="#FCC8F8" rx="0" transform="matrix(-.98112 .05273 -.244 -1.00613 929.078 569.387)"/><rect x="986" y="914" width="9" height="19" fill="#FCC8F8" rx="0" transform="matrix(-.94066 .01846 -.2866 -1.05746 2120.627 2222.838)"/><rect x="246" y="556" width="13" height="18" fill="#EAB4F8" rx="0" transform="matrix(-.28843 .84183 -.99335 -.56782 972.231 717.78)"/><rect x="705" y="1122" width="8" height="17" fill="#FCC8F8" rx="0" transform="matrix(.29293 .97125 -.95111 .26024 1724.952 73.16)"/><rect x="1572" y="778" width="11" height="23" fill="#FCC8F8" rx="0" transform="matrix(-.49341 .7522 -.85294 -.7264 2962.6 658.674)"/><rect x="430" y="739" width="12" height="24" fill="#FCC8F8" rx="0" transform="matrix(-.72397 .4851 -.75533 -.87515 1572.252 1181.508)"/><rect x="1051" y="1180" width="11" height="28" fill="#c7f5fe" rx="0" transform="matrix(-.60657 .76213 -.78484 -.6625 2837.662 1031.365)"/><rect x="349" y="196" width="8" height="10" fill="#c7f5fe" rx="0" transform="matrix(.90966 .44384 -.38802 .91 82.88 -82.674)"/><rect x="1626" y="1239" width="11" height="30" fill="#EAB4F8" rx="0" transform="matrix(.58129 .98017 -.83136 .31848 1812.689 -337.742)"/><rect x="1411" y="611" width="9" height="22" fill="#EAB4F8" rx="0" transform="matrix(.9931 -.01755 .09012 1.00536 37.157 -127.266)"/><rect x="1644" y="1174" width="9" height="20" fill="#c7f5fe" rx="0" transform="matrix(-.01724 .99497 -1.00717 .12217 2794.678 -716.128)"/><rect x="874" y="587" width="13" height="23" fill="#EAB4F8" rx="0" transform="matrix(-.3746 .8268 -.92718 -.62304 1765.26 479.317)"/><rect x="285" y="823" width="12" height="18" fill="#c7f5fe" rx="0" transform="matrix(.5967 .94552 -.85216 .32557 1064.935 285.981)"/><rect x="699" y="1091" width="7" height="20" fill="#FCC8F8" rx="0" transform="matrix(.61221 .78298 -.7814 .63405 1239.403 -233.386)"/><rect x="1434" y="447" width="13" height="28" fill="#c7f5fe" rx="0" transform="matrix(.99254 .2777 -.13953 .96848 86.21 -208.636)"/><rect x="1719" y="38" width="13" height="28" fill="#F3F798" rx="0" transform="matrix(.74413 .7211 -.66818 .69635 466.598 -1349.12)"/><rect x="619" y="1076" width="9" height="19" fill="#c7f5fe" rx="0" transform="matrix(.51751 1.03255 -.90494 .12678 1438.377 482.873)"/><rect x="870" y="1107" width="10" height="18" fill="#FCC8F8" rx="0" transform="matrix(-.01962 1.02158 -.97362 -.27373 1854.726 828.887)"/><rect x="645" y="138" width="9" height="16" fill="#EAB4F8" rx="0" transform="matrix(-.74011 .88552 -.71903 -.49085 1229.12 -460.353)"/><rect x="1295" y="1022" width="13" height="19" fill="#EAB4F8" rx="0" transform="matrix(.99084 .1573 -.10152 .99313 258.351 -334.426)"/><rect x="93" y="567" width="10" height="23" fill="#c7f5fe" rx="0" transform="matrix(-.93846 .45427 -.35951 -.89155 316.162 1053.166)"/><rect x="1250" y="190" width="11" height="28" fill="#FCC8F8" rx="0" transform="matrix(-.97072 .12415 -.14887 -1.01112 2433.645 498.443)"/><rect x="622" y="518" width="7" height="18" fill="#EAB4F8" rx="0" transform="matrix(-.36018 .99127 -.93879 -.19268 1330.204 -79.406)"/><rect x="583" y="379" width="13" height="18" fill="#F3F798" rx="0" transform="matrix(.7854 .3956 -.67753 .93198 342.729 -300.183)"/><rect x="303" y="444" width="13" height="31" fill="#c7f5fe" rx="0" transform="matrix(.9091 .19319 -.49943 .99386 192.61 -105.992)"/><rect x="479" y="916" width="10" height="26" fill="#c7f5fe" rx="0" transform="matrix(-.79754 .29784 -.74882 -.9742 1859.028 1783.959)"/><rect x="335" y="1009" width="11" height="13" fill="#EAB4F8" rx="0" transform="matrix(.9163 .60264 -.4434 .79973 727.508 -19.671)"/><rect x="771" y="759" width="9" height="16" fill="#F3F798" rx="0" transform="matrix(-.82405 .43053 -.55554 -.92327 1808.606 1292.016)"/><rect x="1923" y="723" width="12" height="30" fill="#c7f5fe" rx="0" transform="matrix(.99054 .32577 -.19293 .9461 245.272 -521.26)"/><rect x="917" y="1187" width="7" height="16" fill="#EAB4F8" rx="0" transform="matrix(.98676 .01762 -.20935 1.00967 206.508 -157.15)"/><rect x="1597" y="1100" width="12" height="35" fill="#EAB4F8" rx="0" transform="matrix(.91964 .59685 -.40968 .8215 635.539 -474.626)"/><rect x="1937" y="1074" width="11" height="28" fill="#c7f5fe" rx="0" transform="matrix(.53115 .93405 -.82292 .43556 1640.83 -715.964)"/><rect x="1374" y="1349" width="13" height="19" fill="#EAB4F8" rx="0" transform="matrix(.84676 .36034 -.56925 .93872 835.885 -559.303)"/><rect x="789" y="1319" width="7" height="11" fill="#c7f5fe" rx="0" transform="matrix(.59535 .88632 -.8117 .47126 1685.562 -71.434)"/><rect x="13" y="174" width="13" height="31" fill="#F3F798" rx="0" transform="matrix(.81623 .50375 -.57135 .87253 118.387 11.938)"/><rect x="1142" y="732" width="12" height="34" fill="#EAB4F8" rx="0" transform="matrix(-.45518 .79102 -.90857 -.61801 2537.031 203.363)"/><rect x="1870" y="956" width="9" height="25" fill="#EAB4F8" rx="0" transform="matrix(-.58827 .83982 -.8087 -.54539 3648.32 20.7)"/><rect x="913" y="460" width="11" height="22" fill="#F3F798" rx="0" transform="matrix(1.12606 .70606 -.20876 .75715 229.46 -288.02)"/><rect x="1740" y="1136" width="12" height="33" fill="#FCC8F8" rx="0" transform="matrix(.72176 .90267 -.72405 .47996 1453.576 -605.597)"/><rect x="1651" y="674" width="10" height="10" fill="#EAB4F8" rx="0" transform="matrix(-.9449 .50008 -.36308 -.86616 3375.922 410.09)"/><rect x="1726" y="984" width="9" height="9" fill="#EAB4F8" rx="0" transform="matrix(-.94248 .15797 -.37963 -.9974 3844.496 1944.26)"/><rect x="1314" y="726" width="9" height="22" fill="#FCC8F8" rx="0" transform="matrix(-.43262 .73415 -.9587 -.6846 2807.986 388.933)"/><rect x="954" y="459" width="11" height="17" fill="#EAB4F8" rx="0" transform="matrix(1.10733 .86635 -.3789 .60663 348.893 -316.98)"/><rect x="592" y="1132" width="10" height="24" fill="#c7f5fe" rx="0" transform="matrix(-1.00262 .29242 -.14037 -.95645 1152.59 2074.027)"/><rect x="1642" y="744" width="12" height="23" fill="#F3F798" rx="0" transform="matrix(-.87462 .60773 -.48481 -.80648 3455.647 131.65)"/><rect x="813" y="546" width="9" height="24" fill="#F3F798" rx="0" transform="matrix(.0327 .97607 -1.03514 -.31715 1460.068 125.762)"/><rect x="1469" y="1171" width="10" height="27" fill="#F3F798" rx="0" transform="matrix(-.66389 .85926 -.76489 -.5163 3244.918 426.43)"/><rect x="601" y="429" width="13" height="14" fill="#c7f5fe" rx="0" transform="matrix(-.87267 .1769 -.70381 -1.00324 1635.296 884.033)"/><rect x="59" y="1050" width="9" height="25" fill="#F3F798" rx="0" transform="matrix(.4254 1.02451 -.87786 .23653 874.452 766.765)"/><rect x="364" y="117" width="11" height="18" fill="#F3F798" rx="0" transform="matrix(.96324 .31287 -.23168 .96291 58.354 -169.455)"/><rect x="1627" y="693" width="7" height="16" fill="#c7f5fe" rx="0" transform="matrix(1.0419 .49092 -.07744 .9233 133.241 -248.182)"/><rect x="1276" y="498" width="11" height="24" fill="#EAB4F8" rx="0" transform="matrix(-.5348 .91368 -.85636 -.4068 2343.722 -475.788)"/><rect x="1822" y="1079" width="9" height="15" fill="#EAB4F8" rx="0" transform="matrix(.58682 .75887 -.80764 .65967 1647.78 -1208.277)"/><rect x="134" y="1127" width="10" height="10" fill="#EAB4F8" rx="0" transform="matrix(.44319 .98354 -.92254 .20906 1506.458 744.027)"/><rect x="1946" y="136" width="12" height="35" fill="#c7f5fe" rx="0" transform="matrix(.90738 .9056 -.58037 .52285 415.714 -1097.693)"/><rect x="1276" y="984" width="13" height="13" fill="#FCC8F8" rx="0" transform="matrix(.94815 .78139 -.42605 .70357 636.403 -291.803)"/><rect x="1266" y="479" width="9" height="16" fill="#F3F798" rx="0" transform="matrix(1.00034 .24325 -.09877 .97564 135.792 -430.727)"/><rect x="1796" y="954" width="8" height="23" fill="#EAB4F8" rx="0" transform="matrix(-.22 .87582 -1.01984 -.48547 3444.907 -47.916)"/><rect x="1141" y="907" width="9" height="13" fill="#FCC8F8" rx="0" transform="matrix(.98769 .08737 -.15643 .99863 157.006 -178.928)"/><rect x="1656" y="15" width="12" height="16" fill="#EAB4F8" rx="0" transform="matrix(.03347 .9824 -1.02627 -.24494 1665.128 -1340.865)"/><rect x="386" y="727" width="11" height="23" fill="#c7f5fe" rx="0" transform="matrix(.35796 .94798 -.91746 .3639 1046.948 29.595)"/><rect x="563" y="706" width="10" height="20" fill="#c7f5fe" rx="0" transform="matrix(-.99027 .15646 -.13917 -.98784 1230.12 1324.51)"/><rect x="1231" y="453" width="7" height="13" fill="#c7f5fe" rx="0" transform="matrix(.9539 .63738 -.34798 .8158 258.212 -371.426)"/><rect x="1221" y="780" width="11" height="28" fill="#c7f5fe" rx="0" transform="matrix(-.94057 .31378 -.29213 -.96573 2703.564 959.667)"/><rect x="1607" y="629" width="11" height="27" fill="#c7f5fe" rx="0" transform="matrix(-.5457 .90374 -.84035 -.44079 3024.103 -701.064)"/><rect x="676" y="626" width="9" height="9" fill="#c7f5fe" rx="0" transform="matrix(.01736 1.00492 -.99724 -.12339 1284.559 132.23)"/><rect x="1062" y="929" width="12" height="21" fill="#EAB4F8" rx="0" transform="matrix(.2672 1.00168 -1.0217 -.08764 2004.747 64.289)"/><rect x="490" y="422" width="10" height="28" fill="#FCC8F8" rx="0" transform="matrix(.5149 .83918 -.85726 .54497 582.195 -199.717)"/><rect x="1084" y="891" width="10" height="12" fill="#F3F798" rx="0" transform="matrix(-.06954 .99315 -.99836 -.12194 2135.411 -113.187)"/><rect x="1823" y="645" width="11" height="12" fill="#F3F798" rx="0" transform="matrix(-.94648 .6355 -.40474 -.78478 3767.254 -257.106)"/><rect x="858" y="1269" width="10" height="17" fill="#F3F798" rx="0" transform="matrix(.44986 .8708 -.88865 .50275 1393.309 -25.56)"/><rect x="580" y="1073" width="7" height="18" fill="#F3F798" rx="0" transform="matrix(-.43732 .95481 -.89675 -.32877 1826.412 798.589)"/><rect x="700" y="594" width="10" height="20" fill="#FCC8F8" rx="0" transform="matrix(-.9563 0 -.1454 -1.0457 1351.843 1451.138)"/><rect x="72" y="583" width="12" height="14" fill="#FCC8F8" rx="0" transform="matrix(.08413 1.002 -.98917 .10531 570.784 459.287)"/><rect x="989" y="1170" width="12" height="17" fill="#EAB4F8" rx="0" transform="matrix(.97061 .2087 -.22507 .98188 161.472 -99.261)"/><rect x="1763" y="274" width="10" height="19" fill="#EAB4F8" rx="0" transform="matrix(.36262 .98297 -.94684 .19107 1441.509 -1415.91)"/><rect x="1919" y="1228" width="11" height="19" fill="#F3F798" rx="0" transform="matrix(.9559 .19127 -.31039 .98402 411.173 -482.913)"/><rect x="1457" y="520" width="13" height="18" fill="#F3F798" rx="0" transform="matrix(1.05116 .67216 -.23502 .80105 239.256 -431.02)"/><rect x="1154" y="937" width="11" height="13" fill="#F3F798" rx="0" transform="matrix(-.9901 -.14228 -.0167 -1.0124 2260.922 2310.127)"/><rect x="970" y="1070" width="12" height="15" fill="#EAB4F8" rx="0" transform="matrix(-.88244 .31205 -.4887 -.9604 2427.498 1944.938)"/><rect x="1644" y="30" width="9" height="16" fill="#FCC8F8" rx="0" transform="matrix(-.83078 .19754 -.7883 -1.01626 3213.168 192.687)"/><rect x="1192" y="534" width="7" height="15" fill="#FCC8F8" rx="0" transform="matrix(-.5317 .79912 -.85071 -.60218 2322.37 -46.021)"/><rect x="128" y="1371" width="8" height="14" fill="#EAB4F8" rx="0" transform="matrix(.4568 .91562 -.86937 .44658 1047.372 667.415)"/><rect x="1137" y="690" width="7" height="7" fill="#EAB4F8" rx="0" transform="matrix(-.17422 .95164 -.99421 -.3092 2143.947 -217.234)"/><rect x="27" y="814" width="7" height="13" fill="#EAB4F8" rx="0" transform="matrix(-.7796 .25586 -.78156 -1.0262 887.397 1665.2)"/><rect x="1658" y="249" width="12" height="23" fill="#c7f5fe" rx="0" transform="matrix(1.04846 .19438 .24933 1 0 0)"/><rect x="641" y="577" width="9" height="26" fill="#EAB4F8" rx="0" transform="matrix(.94856 .2443 -.28888 .97983 247.328 -236.515)"/><rect x="1891" y="1291" width="12" height="16" fill="#c7f5fe" rx="0" transform="matrix(-.58276 .48603 -.96147 -.9141 4803.983 2072.704)"/><rect x="1846" y="733" width="10" height="25" fill="#c7f5fe" rx="0" transform="matrix(.467 .84691 -.87748 .55 1666.178 -1492.295)"/><rect x="1803" y="1313" width="13" height="30" fill="#EAB4F8" rx="0" transform="matrix(-.52473 .74416 -.87132 -.67005 4116.08 966.09)"/><rect x="155" y="860" width="9" height="11" fill="#c7f5fe" rx="0" transform="matrix(.42117 .90099 -.90447 .43944 798.446 352.609)"/><rect x="1232" y="172" width="13" height="16" fill="#F3F798" rx="0" transform="matrix(.9206 .19224 -.46566 .989 177.721 -388.18)"/><rect x="1006" y="824" width="10" height="19" fill="#F3F798" rx="0" transform="matrix(-.37782 .9636 -.92943 -.27631 2008.22 160.292)"/><rect x="928" y="473" width="10" height="26" fill="#FCC8F8" rx="0" transform="matrix(.75621 .98017 -.77452 .31848 769.781 -350.657)"/><rect x="794" y="474" width="8" height="16" fill="#c7f5fe" rx="0" transform="matrix(.5702 .95338 -.86363 .30977 906.006 -483.908)"/><rect x="1446" y="723" width="8" height="9" fill="#c7f5fe" rx="0" transform="matrix(-.9563 0 -.23757 -1.0457 2948.114 1931.55)"/><rect x="1352" y="688" width="11" height="25" fill="#F3F798" rx="0" transform="matrix(-.83503 .25298 -.6038 -1.01463 3011.623 1482.863)"/><rect x="1725" y="835" width="8" height="13" fill="#c7f5fe" rx="0" transform="matrix(-.28828 .9056 -.9378 -.52285 2920.79 244.308)"/><rect x="1378" y="463" width="8" height="22" fill="#c7f5fe" rx="0" transform="matrix(.34653 .87475 -.9511 .48488 1290.684 -988.866)"/><rect x="55" y="917" width="12" height="25" fill="#FCC8F8" rx="0" transform="matrix(.31667 .86655 -.97116 .5003 780.86 409.477)"/><rect x="803" y="77" width="11" height="20" fill="#c7f5fe" rx="0" transform="matrix(-.22393 .74785 -1.11324 -.74785 1191.171 -174.185)"/><rect x="1184" y="658" width="10" height="18" fill="#F3F798" rx="0" transform="matrix(-.54698 .69994 -.84214 -.7506 2417.495 609.92)"/><rect x="169" y="1203" width="10" height="26" fill="#FCC8F8" rx="0" transform="matrix(.45373 .90977 -.8876 .42423 1321.814 526.61)"/><rect x="1769" y="328" width="8" height="21" fill="#FCC8F8" rx="0" transform="matrix(.94944 .28675 -.17633 1 0 0)"/><rect x="230" y="952" width="11" height="21" fill="#EAB4F8" rx="0" transform="matrix(-.82904 .41301 -.5592 -.92764 968.962 1799.613)"/><rect x="1062" y="299" width="7" height="16" fill="#EAB4F8" rx="0" transform="matrix(1.0486 .55719 -.1166 .8917 75.811 -214.233)"/><rect x="1011" y="831" width="12" height="30" fill="#c7f5fe" rx="0" transform="matrix(-.69427 .71978 -.71887 -.69508 2300.45 737.54)"/><rect x="1154" y="463" width="13" height="33" fill="#FCC8F8" rx="0" transform="matrix(.91922 .29277 -.40898 .95762 260.576 -380.26)"/><rect x="1815" y="706" width="11" height="32" fill="#F3F798" rx="0" transform="matrix(1.0988 .44816 .02156 .91887 122.548 -370.351)"/><rect x="1913" y="1007" width="11" height="11" fill="#F3F798" rx="0" transform="matrix(.62385 .8708 -.7882 .50275 1721.86 -1368.803)"/><rect x="1504" y="183" width="7" height="9" fill="#F3F798" rx="0" transform="matrix(-.92075 .20842 -.46623 -.98054 3039.885 162.573)"/><rect x="27" y="1158" width="9" height="15" fill="#c7f5fe" rx="0" transform="matrix(.15863 1.00452 -1.03505 -.25046 1397.837 1434.204)"/><rect x="1612" y="378" width="7" height="10" fill="#EAB4F8" rx="0" transform="matrix(.99417 -.01746 .30762 1.00046 -2.29 -28.378)"/><rect x="569" y="692" width="7" height="19" fill="#FCC8F8" rx="0" transform="matrix(.90561 .39457 -.4009 .92955 411.524 -256.932)"/><rect x="1876" y="510" width="8" height="15" fill="#c7f5fe" rx="0" transform="matrix(1.00387 -.05299 -.2828 1.01108 100.341 -203.877)"/><rect x="890" y="1027" width="11" height="18" fill="#F3F798" rx="0" transform="matrix(-.4376 .89223 -.89782 -.45461 2286.678 661.057)"/><rect x="200" y="1083" width="10" height="19" fill="#F3F798" rx="0" transform="matrix(-.92052 .24325 -.41893 -.97564 1158.482 2086.974)"/><rect x="1426" y="347" width="12" height="27" fill="#FCC8F8" rx="0" transform="matrix(.0808 1.01732 -.97874 .05332 1567.954 -837.17)"/><rect x="714" y="1244" width="13" height="18" fill="#F3F798" rx="0" transform="matrix(.8657 .69508 -.54221 .71978 1001.527 -124.528)"/><rect x="1710" y="1187" width="7" height="18" fill="#FCC8F8" rx="0" transform="matrix(.01837 .98784 -1.01522 -.15646 3122.894 -339.447)"/><rect x="1425" y="884" width="10" height="14" fill="#EAB4F8" rx="0" transform="matrix(-.59594 .7546 -.7886 -.67945 2884.826 669.45)"/><rect x="1235" y="1318" width="10" height="25" fill="#F3F798" rx="0" transform="matrix(.37194 .99315 -.96123 .12194 2426.81 -106.555)"/><rect x="1297" y="1281" width="12" height="20" fill="#F3F798" rx="0" transform="matrix(.15436 1.04362 -.97715 -.12814 2303.5 519.957)"/><rect x="1341" y="426" width="11" height="25" fill="#EAB4F8" rx="0" transform="matrix(.33156 1.01626 -.91956 .19754 1219.273 -655.715)"/><rect x="1149" y="630" width="10" height="14" fill="#EAB4F8" rx="0" transform="matrix(.3003 1.01732 -.99871 -.05332 1580.052 -278.711)"/><rect x="666" y="253" width="12" height="26" fill="#EAB4F8" rx="0" transform="matrix(1.0398 .27568 -.00121 .9614 47.998 -163.261)"/><rect x="1847" y="32" width="12" height="26" fill="#FCC8F8" rx="0" transform="matrix(-.21002 .93874 -.9804 -.37928 2205.552 -1970.907)"/><rect x="272" y="1095" width="11" height="18" fill="#F3F798" rx="0" transform="matrix(-.90419 .50771 -.40351 -.87939 1047.668 1885.02)"/><rect x="102" y="156" width="13" height="22" fill="#c7f5fe" rx="0" transform="matrix(-.31645 .86616 -.97182 -.50008 337.959 158.429)"/><rect x="1795" y="759" width="11" height="31" fill="#c7f5fe" rx="0" transform="matrix(-.91228 .47126 -.4062 -.88632 3768.43 454.92)"/><rect x="1801" y="493" width="11" height="13" fill="#c7f5fe" rx="0" transform="matrix(-.32846 .98178 -.95472 -.19084 2819.282 -1210.289)"/><rect x="309" y="955" width="11" height="12" fill="#c7f5fe" rx="0" transform="matrix(.93814 .40898 -.33803 .91858 507.924 -83.432)"/><rect x="737" y="1049" width="13" height="23" fill="#FCC8F8" rx="0" transform="matrix(.4347 1.03852 -1.03176 -.16448 1863.372 704.377)"/><rect x="1915" y="1345" width="12" height="30" fill="#c7f5fe" rx="0" transform="matrix(-.12343 .9968 -1.014 .0872 3309.177 -740.543)"/><rect x="1784" y="123" width="7" height="15" fill="#EAB4F8" rx="0" transform="matrix(.1582 .99614 -1.0404 -.22998 1730.506 -1240.14)"/><rect x="1638" y="418" width="10" height="18" fill="#c7f5fe" rx="0" transform="matrix(-.10585 1.0042 -.97138 -.23184 2128.96 -714.258)"/><rect x="1914" y="253" width="13" height="15" fill="#FCC8F8" rx="0" transform="matrix(-1.00598 -.08764 -.0875 -1.00168 3907.6 891.595)"/><rect x="1419" y="381" width="11" height="21" fill="#c7f5fe" rx="0" transform="matrix(-.21167 1.00598 -1.01257 .08801 2092.144 -1276.183)"/><rect x="1524" y="1347" width="11" height="13" fill="#EAB4F8" rx="0" transform="matrix(.34865 .96886 -.91886 .3148 2007.92 -257.145)"/><rect x="1043" y="774" width="9" height="10" fill="#F3F798" rx="0" transform="matrix(.48214 .86044 -.8725 .517 1115.236 -433.415)"/><rect x="777" y="1077" width="8" height="14" fill="#c7f5fe" rx="0" transform="matrix(.51504 1.02451 -.85717 .23653 1307.925 281.222)"/><rect x="1206" y="1032" width="10" height="29" fill="#c7f5fe" rx="0" transform="matrix(-.0729 .94772 -1.02117 -.44193 2467.008 731.53)"/><rect x="1362" y="170" width="7" height="10" fill="#EAB4F8" rx="0" transform="matrix(.54537 .8851 -.83983 .47062 772.491 -1020.482)"/><rect x="1840" y="609" width="12" height="14" fill="#EAB4F8" rx="0" transform="matrix(1.02973 .19127 .0694 .98402 47.201 -214.168)"/><rect x="489" y="1177" width="10" height="12" fill="#c7f5fe" rx="0" transform="matrix(.03862 .91266 -1.11453 -.44513 2230.749 1345.845)"/><rect x="1016" y="1130" width="7" height="20" fill="#F3F798" rx="0" transform="matrix(.98479 .38039 -.19148 .94149 256.83 -141.333)"/><rect x="941" y="228" width="7" height="17" fill="#c7f5fe" rx="0" transform="matrix(.40194 .96573 -.90489 .31378 750.69 -583.3)"/><rect x="316" y="245" width="8" height="13" fill="#EAB4F8" rx="0" transform="matrix(-.0695 1.01156 -.99465 .0885 595.8 -150.882)"/><rect x="213" y="30" width="7" height="9" fill="#c7f5fe" rx="0" transform="matrix(.3771 .99954 -.98729 .0349 181.355 -179.326)"/><rect x="1130" y="335" width="12" height="22" fill="#c7f5fe" rx="0" transform="matrix(.9848 .01767 -.17365 1.01231 77.34 -204.257)"/><rect x="1295" y="740" width="13" height="26" fill="#EAB4F8" rx="0" transform="matrix(.60418 .85834 -.802 .51574 1162.114 -684.281)"/><rect x="1614" y="126" width="10" height="18" fill="#c7f5fe" rx="0" transform="matrix(.40734 .93715 -.9107 .35974 1081.52 -1572.449)"/><rect x="320" y="967" width="7" height="14" fill="#F3F798" rx="0" transform="matrix(-.99452 .20906 -.10453 -.98354 747.039 1830.332)"/><rect x="461" y="658" width="8" height="16" fill="#EAB4F8" rx="0" transform="matrix(1.02485 .60264 -.29934 .79973 412.124 -122.48)"/><rect x="893" y="1164" width="7" height="9" fill="#c7f5fe" rx="0" transform="matrix(.48416 .88416 -.87358 .47012 1440.786 -126.496)"/><rect x="228" y="1235" width="12" height="29" fill="#EAB4F8" rx="0" transform="matrix(-.68366 .682 -.73314 -.73135 1397.409 2003.739)"/><rect x="921" y="799" width="8" height="14" fill="#EAB4F8" rx="0" transform="matrix(-.14582 .92029 -1.01862 -.42914 1999.882 463.72)"/><rect x="1079" y="110" width="11" height="11" fill="#EAB4F8" rx="0" transform="matrix(.46963 .91266 -.86665 .44513 659.189 -1116.919)"/><rect x="1135" y="323" width="10" height="11" fill="#FCC8F8" rx="0" transform="matrix(-.2604 .81266 -1.01967 -.65808 1866.963 -33.216)"/><rect x="1403" y="1288" width="9" height="15" fill="#c7f5fe" rx="0" transform="matrix(-.85525 .5163 -.5135 -.85926 3179.027 1780.408)"/><rect x="1398" y="1065" width="11" height="29" fill="#F3F798" rx="0" transform="matrix(-.45033 .8336 -.89586 -.56227 3217.787 368.997)"/><rect x="451" y="1048" width="9" height="12" fill="#F3F798" rx="0" transform="matrix(-.34491 .98402 -.9492 -.19127 1523.628 775.53)"/><rect x="1956" y="156" width="11" height="27" fill="#F3F798" rx="0" transform="matrix(.54539 .86603 -.83982 .5 1042.957 -1613.959)"/><rect x="996" y="630" width="7" height="14" fill="#EAB4F8" rx="0" transform="matrix(.86048 .31205 -.5563 .9604 432.845 -427.145)"/><rect x="1050" y="1047" width="8" height="9" fill="#FCC8F8" rx="0" transform="matrix(-.73444 .48666 -.72985 -.87796 2817.854 1553.947)"/><rect x="1508" y="692" width="13" height="30" fill="#c7f5fe" rx="0" transform="matrix(.88963 .3956 -.43196 .93198 521.655 -790.921)"/><rect x="1597" y="554" width="8" height="9" fill="#EAB4F8" rx="0" transform="matrix(-.93803 .29688 -.30019 -.97106 3137.27 907.827)"/><rect x="77" y="828" width="7" height="17" fill="#FCC8F8" rx="0" transform="matrix(.65366 .86655 -.7766 .5003 854.716 345.426)"/><rect x="1638" y="503" width="10" height="19" fill="#FCC8F8" rx="0" transform="matrix(.99066 .08737 -.12241 .99863 12.133 -27.953)"/><rect x="427" y="1027" width="13" height="31" fill="#c7f5fe" rx="0" transform="matrix(.14017 .99034 -1.03955 -.2105 1672.453 901.297)"/><rect x="1021" y="148" width="7" height="8" fill="#EAB4F8" rx="0" transform="matrix(-.563 .90099 -.8353 -.43944 1722.643 -775.908)"/><rect x="366" y="129" width="11" height="11" fill="#FCC8F8" rx="0" transform="matrix(.99575 -.03524 -.13977 1.00921 17.504 -40.357)"/><rect x="1578" y="945" width="13" height="28" fill="#F3F798" rx="0" transform="matrix(-.50092 .66923 -.93792 -.74326 3617.407 639.043)"/><rect x="1486" y="605" width="13" height="24" fill="#c7f5fe" rx="0" transform="matrix(.91551 .43753 -.32226 .93828 163.87 -215.012)"/><rect x="731" y="1099" width="8" height="22" fill="#F3F798" rx="0" transform="matrix(.96726 .17407 -.25915 .98721 293.249 -165.145)"/><rect x="1731" y="717" width="9" height="24" fill="#F3F798" rx="0" transform="matrix(-.59035 .65857 -.83933 -.7576 3511.439 290.182)"/><rect x="1855" y="1180" width="13" height="32" fill="#c7f5fe" rx="0" transform="matrix(.654 .9723 -.81599 .31592 1872.102 -596.11)"/><rect x="1656" y="818" width="8" height="21" fill="#FCC8F8" rx="0" transform="matrix(.23 .9846 -1.09036 -.31992 2546.686 -96.099)"/><rect x="319" y="112" width="8" height="16" fill="#F3F798" rx="0" transform="matrix(-.95332 .45461 -.32868 -.89223 661.346 63.3)"/><rect x="493" y="214" width="10" height="21" fill="#FCC8F8" rx="0" transform="matrix(-.4442 .96185 -.9123 -.2758 894.912 -209.972)"/><rect x="663" y="662" width="8" height="23" fill="#c7f5fe" rx="0" transform="matrix(-.93757 .10583 -.52862 -1.00692 1857.156 1386.713)"/><rect x="642" y="1073" width="9" height="18" fill="#FCC8F8" rx="0" transform="matrix(-.21805 .9707 -.96765 -.27835 2027.125 664.748)"/><rect x="1387" y="1322" width="10" height="13" fill="#EAB4F8" rx="0" transform="matrix(.34267 .97974 -.94157 .22619 2191.623 -189.483)"/><rect x="1205" y="703" width="10" height="13" fill="#F3F798" rx="0" transform="matrix(-.46142 .78298 -.90352 -.63405 2484.434 360.517)"/><rect x="1201" y="955" width="12" height="21" fill="#FCC8F8" rx="0" transform="matrix(-.47948 .56952 -1.01752 -.877 3150.811 1493.836)"/><rect x="1881" y="370" width="11" height="26" fill="#F3F798" rx="0" transform="matrix(-.53456 .64367 -.91652 -.7671 3393.305 -438.618)"/><rect x="1579" y="970" width="9" height="9" fill="#c7f5fe" rx="0" transform="matrix(-.10465 .95689 -1.01306 -.29255 2948.66 -310.939)"/><rect x="1393" y="1313" width="8" height="12" fill="#F3F798" rx="0" transform="matrix(-.1982 .82402 -1.05872 -.6438 3409.74 1444.117)"/><rect x="289" y="123" width="11" height="31" fill="#FCC8F8" rx="0" transform="matrix(-.66944 .71945 -.74348 -.69476 597.13 27.988)"/><rect x="737" y="638" width="9" height="12" fill="#FCC8F8" rx="0" transform="matrix(.7004 .61604 -.72682 .7885 572.109 -294.686)"/><rect x="1901" y="734" width="7" height="10" fill="#FCC8F8" rx="0" transform="matrix(-.0002 .99497 -1.00503 -.12217 2693.293 -932.463)"/><rect x="1344" y="679" width="9" height="13" fill="#FCC8F8" rx="0" transform="matrix(.93709 .43844 -.3595 .89893 400.855 -545.489)"/><rect x="1651" y="945" width="9" height="19" fill="#c7f5fe" rx="0" transform="matrix(-.81984 .4068 -.61683 -.91368 3810.535 1182.054)"/><rect x="1610" y="663" width="10" height="23" fill="#FCC8F8" rx="0" transform="matrix(-.42762 .78993 -.93183 -.61716 3105.82 -297.9)"/><rect x="82" y="738" width="12" height="25" fill="#c7f5fe" rx="0" transform="matrix(-.90002 .5163 -.439 -.85926 483.673 1343.787)"/><rect x="757" y="606" width="10" height="25" fill="#FCC8F8" rx="0" transform="matrix(1.10394 .49756 -.01825 .89763 159.884 -139.902)"/><rect x="1872" y="52" width="11" height="15" fill="#F3F798" rx="0" transform="matrix(.17429 .98162 -1.08562 -.37681 1769.44 -1151.043)"/><rect x="1223" y="803" width="7" height="9" fill="#EAB4F8" rx="0" transform="matrix(.65606 .6508 -.75471 .7756 1031.272 -811.256)"/><rect x="1962" y="461" width="7" height="8" fill="#EAB4F8" rx="0" transform="matrix(.15998 .94199 -1.00336 .34286 2077.41 -1683.345)"/><rect x="1016" y="476" width="10" height="17" fill="#FCC8F8" rx="0" transform="matrix(.65575 .69635 -.757 .7211 630.197 -504.454)"/><rect x="31" y="578" width="7" height="11" fill="#c7f5fe" rx="0" transform="matrix(.99394 .39367 -.19866 .92742 304.344 24.534)"/><rect x="736" y="212" width="11" height="24" fill="#F3F798" rx="0" transform="matrix(-.8949 .23523 -.3749 -1.0189 1433.712 504.508)"/><rect x="985" y="1307" width="9" height="17" fill="#EAB4F8" rx="0" transform="matrix(-.78879 .38298 -.65882 -.9479 2797.053 2393.83)"/><rect x="1561" y="210" width="8" height="18" fill="#FCC8F8" rx="0" transform="matrix(-.75571 .42677 -.72254 -.91521 2991.252 -28.52)"/><rect x="1352" y="1149" width="11" height="12" fill="#FCC8F8" rx="0" transform="matrix(-.75178 .61905 -.65313 -.79235 3064.406 1372.48)"/><rect x="521" y="954" width="13" height="20" fill="#F3F798" rx="0" transform="matrix(.21238 1.0345 -1.01178 -.2199 1491.06 811.905)"/><rect x="786" y="13" width="13" height="28" fill="#c7f5fe" rx="0" transform="matrix(.97811 .17431 -.1897 .98857 19.505 -207.168)"/><rect x="20" y="196" width="13" height="32" fill="#FCC8F8" rx="0" transform="matrix(-.08718 .99772 -.9962 -.06977 232.584 200.814)"/><rect x="1422" y="553" width="13" height="18" fill="#FCC8F8" rx="0" transform="matrix(.7298 .80169 -.69743 .60411 886.893 -1047.698)"/><rect x="1716" y="1164" width="7" height="19" fill="#c7f5fe" rx="0" transform="matrix(.01707 .99163 -1.01084 -.13936 3009.186 -277.944)"/><rect x="579" y="519" width="12" height="21" fill="#F3F798" rx="0" transform="matrix(.28258 1.00536 -.9996 -.01755 1063.86 12.145)"/><rect x="799" y="16" width="11" height="24" fill="#EAB4F8" rx="0" transform="matrix(.10435 .99324 -.98463 .21112 740.156 -918.826)"/><rect x="955" y="1182" width="7" height="16" fill="#FCC8F8" rx="0" transform="matrix(-.95143 .14054 -.34556 -1 2374.304 2380)"/><rect x="105" y="665" width="11" height="24" fill="#EAB4F8" rx="0" transform="matrix(-.32912 .86785 -.95451 -.52146 829.47 951.631)"/><rect x="1895" y="160" width="11" height="13" fill="#c7f5fe" rx="0" transform="matrix(-.98235 .05246 -.31646 -1.00107 3878.34 366.366)"/><rect x="1982" y="1185" width="8" height="16" fill="#FCC8F8" rx="0" transform="matrix(.58787 .79864 -.80914 .60182 1762.961 -1111.055)"/><rect x="41" y="209" width="10" height="23" fill="#c7f5fe" rx="0" transform="matrix(.1621 .92029 -1.01103 .42914 239.153 75.43)"/><rect x="407" y="848" width="13" height="30" fill="#EAB4F8" rx="0" transform="matrix(-.5592 .6365 -.82904 -.84465 1360.186 1471.126)"/><rect x="405" y="1146" width="12" height="12" fill="#EAB4F8" rx="0" transform="matrix(-.67753 .93198 -.7854 -.3956 1422.087 1159.594)"/><rect x="1693" y="554" width="9" height="17" fill="#EAB4F8" rx="0" transform="matrix(.37101 .99452 -.96651 .10453 1762.096 -1184.498)"/><rect x="1570" y="1382" width="7" height="13" fill="#FCC8F8" rx="0" transform="matrix(.1141 1.00967 -.99241 -.01762 3084.708 -396.892)"/><rect x="1914" y="47" width="8" height="15" fill="#c7f5fe" rx="0" transform="matrix(-.1049 1.00613 -.9994 .05273 2179.97 -2113.63)"/><rect x="1368" y="900" width="10" height="27" fill="#c7f5fe" rx="0" transform="matrix(.85018 .473 -.51522 .88958 485.562 -379.972)"/><rect x="1711" y="1196" width="9" height="9" fill="#F3F798" rx="0" transform="matrix(.62427 .92733 -.82615 .37466 1972 -870.054)"/><rect x="345" y="862" width="11" height="12" fill="#F3F798" rx="0" transform="matrix(.4173 .78683 -.933 .63716 928.68 -16.358)"/><rect x="1950" y="906" width="9" height="13" fill="#EAB4F8" rx="0" transform="matrix(-.30602 .7171 -1.06635 -.769 3911.505 847.696)"/><rect x="543" y="266" width="12" height="14" fill="#c7f5fe" rx="0" transform="matrix(.9957 .42268 -.23054 .90645 120.223 -196.93)"/><rect x="25" y="526" width="7" height="17" fill="#EAB4F8" rx="0" transform="matrix(.7913 .67747 -.59725 .7524 287.488 117.544)"/><rect x="1585" y="178" width="8" height="12" fill="#FCC8F8" rx="0" transform="matrix(-.32677 .9757 -.94946 -.22526 2277.662 -1408.227)"/><rect x="704" y="1175" width="10" height="21" fill="#c7f5fe" rx="0" transform="matrix(-1.0133 -.08781 -.19387 -1.00368 1858.81 2524.67)"/><rect x="1416" y="728" width="13" height="34" fill="#c7f5fe" rx="0" transform="matrix(-.09671 .99127 -.99 -.19268 2423.47 -721.457)"/><rect x="1601" y="1000" width="11" height="24" fill="#F3F798" rx="0" transform="matrix(.4345 .9601 -.89195 .3306 1743.254 -581.697)"/><rect x="1173" y="544" width="13" height="17" fill="#c7f5fe" rx="0" transform="matrix(-.98877 -.05285 .05457 -1.00844 2214.654 1337.77)"/><rect x="1269" y="232" width="7" height="9" fill="#FCC8F8" rx="0" transform="matrix(-.8677 .1472 -.61987 -1.04733 2630.095 735.048)"/><rect x="1566" y="1133" width="13" height="13" fill="#F3F798" rx="0" transform="matrix(-.39915 .90763 -.9071 -.44268 3395.759 -4.31)"/><rect x="1417" y="600" width="13" height="29" fill="#FCC8F8" rx="0" transform="matrix(.24738 1.00737 -1.00998 -.07044 1835.615 -576.141)"/><rect x="71" y="666" width="11" height="17" fill="#EAB4F8" rx="0" transform="matrix(-.76945 .79973 -.6706 -.60264 481.484 1015.793)"/><rect x="312" y="38" width="11" height="17" fill="#FCC8F8" rx="0" transform="matrix(.32475 .99384 -1.1244 -.36173 320.33 -142.9)"/><rect x="1048" y="414" width="11" height="28" fill="#F3F798" rx="0" transform="matrix(-.43765 .8851 -.89711 -.47062 1881.004 -229.364)"/><rect x="1335" y="554" width="12" height="18" fill="#F3F798" rx="0" transform="matrix(-.67328 .4499 -.84228 -.92244 2919.524 788.607)"/><rect x="704" y="867" width="11" height="17" fill="#F3F798" rx="0" transform="matrix(.99544 .56056 -.30813 .83106 486.586 -200.198)"/><rect x="1529" y="321" width="7" height="11" fill="#EAB4F8" rx="0" transform="matrix(.73072 .80463 -.69216 .60633 678.321 -1292.736)"/><rect x="1778" y="15" width="7" height="13" fill="#c7f5fe" rx="0" transform="matrix(-.6314 .6527 -.77962 -.77786 2928.95 -810.441)"/><rect x="1797" y="891" width="13" height="23" fill="#EAB4F8" rx="0" transform="matrix(-.98118 .17431 -.17233 -.98857 3635.816 1638.1)"/><rect x="1667" y="1021" width="11" height="28" fill="#F3F798" rx="0" transform="matrix(-.54339 .69988 -.86613 -.72474 3630.058 819.924)"/><rect x="1878" y="564" width="11" height="17" fill="#F3F798" rx="0" transform="matrix(-1.0355 .39457 -.09491 -.92955 3833.93 96.785)"/><rect x="729" y="651" width="11" height="25" fill="#FCC8F8" rx="0" transform="matrix(.86545 .45965 -.47702 .90211 482.51 -388.998)"/><rect x="1538" y="629" width="10" height="11" fill="#FCC8F8" rx="0" transform="matrix(-.303 .78316 -1.02263 -.65715 2863.977 171.022)"/><rect x="805" y="93" width="13" height="38" fill="#c7f5fe" rx="0" transform="matrix(-.66434 .49756 -.8113 -.89763 1488.889 -3.888)"/><rect x="923" y="952" width="9" height="18" fill="#F3F798" rx="0" transform="matrix(.98256 .01772 -.1376 1.01527 190.207 -194.656)"/><rect x="712" y="613" width="11" height="11" fill="#EAB4F8" rx="0" transform="matrix(.3746 .96656 -.92718 .27716 1022.183 -171.013)"/><rect x="1118" y="1265" width="10" height="28" fill="#c7f5fe" rx="0" transform="matrix(-.05211 .99513 -.99942 -.1046 2568.244 256.029)"/><rect x="1473" y="20" width="11" height="27" fill="#c7f5fe" rx="0" transform="matrix(-.9588 .14054 -.2931 -1 2910.129 67)"/><rect x="1056" y="1240" width="9" height="18" fill="#EAB4F8" rx="0" transform="matrix(-.61798 .73147 -.79084 -.6821 2792.264 1343.738)"/><rect x="1681" y="732" width="8" height="11" fill="#EAB4F8" rx="0" transform="matrix(-.22704 1.00967 -.98646 -.01762 2760.058 -1187.614)"/><rect x="761" y="53" width="8" height="17" fill="#F3F798" rx="0" transform="matrix(-.63292 .6625 -.78132 -.76213 1303.14 -290.933)"/><rect x="35" y="744" width="8" height="20" fill="#F3F798" rx="0" transform="matrix(.73376 .61604 -.68411 .7885 486.759 134.09)"/><rect x="1855" y="703" width="7" height="10" fill="#EAB4F8" rx="0" transform="matrix(-.6625 .83867 -.76213 -.54464 3529.851 -465.065)"/><rect x="757" y="1124" width="9" height="25" fill="#F3F798" rx="0" transform="matrix(-.45507 .8253 -.89303 -.57788 2144.436 1258.297)"/><rect x="456" y="807" width="7" height="17" fill="#EAB4F8" rx="0" transform="matrix(.06978 .99708 -1.01523 -.17581 1333.07 573.493)"/><rect x="1240" y="164" width="8" height="9" fill="#F3F798" rx="0" transform="matrix(.35106 1.01856 -.97565 .01778 1029.342 -859.777)"/><rect x="1727" y="189" width="11" height="15" fill="#EAB4F8" rx="0" transform="matrix(-.09227 .93758 -1.0255 -.41744 2156.554 -945.844)"/><rect x="360" y="663" width="13" height="20" fill="#EAB4F8" rx="0" transform="matrix(-.3897 .78801 -.96455 -.61566 1351.447 798.534)"/><rect x="398" y="1222" width="12" height="33" fill="#c7f5fe" rx="0" transform="matrix(.76992 .6757 -.62485 .75045 753.505 92.863)"/><rect x="301" y="434" width="8" height="22" fill="#c7f5fe" rx="0" transform="matrix(.95851 .1576 -.293 .9951 135.929 -83.342)"/><rect x="1548" y="853" width="11" height="27" fill="#c7f5fe" rx="0" transform="matrix(.55031 .94913 -.8641 .32681 1684.72 -1027.07)"/><rect x="1424" y="128" width="11" height="16" fill="#c7f5fe" rx="0" transform="matrix(.8618 .67005 -.5353 .74416 284.46 -997.958)"/><rect x="1697" y="1101" width="11" height="28" fill="#F3F798" rx="0" transform="matrix(.94892 .17407 -.36314 .98721 369.57 -401.15)"/><rect x="1032" y="352" width="7" height="7" fill="#FCC8F8" rx="0" transform="matrix(.29765 1.0379 -.92694 .12744 986.172 -447.963)"/><rect x="1298" y="84" width="12" height="18" fill="#EAB4F8" rx="0" transform="matrix(.95797 .22509 -.29328 .97496 67.522 -245.65)"/><rect x="899" y="1121" width="9" height="21" fill="#EAB4F8" rx="0" transform="matrix(.5585 1.01757 -.86402 .21629 1498.201 226.47)"/><rect x="19" y="86" width="13" height="34" fill="#F3F798" rx="0" transform="matrix(.5405 .90211 -.8331 .45965 91.917 36.691)"/><rect x="88" y="362" width="11" height="16" fill="#EAB4F8" rx="0" transform="matrix(.86094 .5189 -.49429 .8636 246.276 -9.532)"/><rect x="451" y="905" width="13" height="32" fill="#F3F798" rx="0" transform="matrix(1.1009 .34842 .1546 .95728 139.594 -31.13)"/><rect x="1934" y="462" width="9" height="15" fill="#EAB4F8" rx="0" transform="matrix(-.94694 .57577 -.38444 -.82228 3912.495 -430.16)"/><rect x="801" y="261" width="12" height="19" fill="#c7f5fe" rx="0" transform="matrix(.98769 .38446 -.15643 .95157 52.251 -110.85)"/><rect x="107" y="161" width="10" height="17" fill="#EAB4F8" rx="0" transform="matrix(-.23168 .96291 -.96324 -.31287 336.254 96.946)"/><rect x="1580" y="1044" width="11" height="11" fill="#c7f5fe" rx="0" transform="matrix(-.62105 .70149 -.78243 -.7264 3612.844 476.834)"/><rect x="1185" y="219" width="9" height="14" fill="#FCC8F8" rx="0" transform="matrix(.81677 .75636 -.53337 .7304 284.903 -452.269)"/><rect x="1769" y="1321" width="11" height="20" fill="#F3F798" rx="0" transform="matrix(-.77993 .72209 -.6317 -.69731 3958.223 822.53)"/><rect x="933" y="1010" width="7" height="13" fill="#c7f5fe" rx="0" transform="matrix(.94588 .46593 -.28985 .91444 280.71 -133.17)"/><rect x="1672" y="989" width="9" height="14" fill="#F3F798" rx="0" transform="matrix(.97734 .42677 -.24727 .91521 531.337 -866.653)"/><rect x="372" y="1070" width="12" height="15" fill="#FCC8F8" rx="0" transform="matrix(-.9005 .473 -.42057 -.88958 1243.66 1810.815)"/><rect x="1512" y="1259" width="7" height="20" fill="#FCC8F8" rx="0" transform="matrix(-.13898 .99034 -.98021 -.2105 2837.99 275.3)"/><rect x="740" y="988" width="7" height="9" fill="#F3F798" rx="0" transform="matrix(-.83772 .39457 -.56085 -.92955 2211.52 1517.224)"/><rect x="630" y="41" width="13" height="16" fill="#c7f5fe" rx="0" transform="matrix(.99555 .54873 -.28938 .84497 39.433 -263.517)"/><rect x="409" y="1214" width="7" height="20" fill="#FCC8F8" rx="0" transform="matrix(1 .20791 -.1051 .97815 257.295 -59.016)"/><rect x="191" y="437" width="7" height="18" fill="#EAB4F8" rx="0" transform="matrix(.7685 .72265 -.588 .74833 227.802 27.461)"/><rect x="254" y="11" width="11" height="30" fill="#c7f5fe" rx="0" transform="matrix(-.56424 .93874 -.83729 -.37928 428.48 -248.843)"/><rect x="1933" y="1202" width="8" height="22" fill="#c7f5fe" rx="0" transform="matrix(-.6429 .49388 -.86494 -.89099 4627.786 1713.633)"/><rect x="694" y="849" width="9" height="11" fill="#F3F798" rx="0" transform="matrix(-.29401 .89223 -.97098 -.45461 1922.397 583.138)"/><rect x="1637" y="257" width="7" height="17" fill="#F3F798" rx="0" transform="matrix(.99529 .07028 .00455 1.00506 18.975 -318.065)"/><rect x="287" y="852" width="7" height="14" fill="#c7f5fe" rx="0" transform="matrix(-.97971 .10454 -.244 -.99467 890.796 1688.125)"/><rect x="1470" y="648" width="12" height="17" fill="#EAB4F8" rx="0" transform="matrix(.64652 .83018 -.76848 .55996 1117.963 -1013.807)"/><rect x="312" y="801" width="12" height="18" fill="#F3F798" rx="0" transform="matrix(-.32889 .84423 -.95422 -.59114 1226.561 1099.641)"/><rect x="785" y="1316" width="8" height="11" fill="#EAB4F8" rx="0" transform="matrix(.19331 1.01 -1.00362 -.07063 2114.788 742.909)"/><rect x="1344" y="1120" width="13" height="23" fill="#F3F798" rx="0" transform="matrix(.91835 .78011 -.5382 .63172 1077.566 -518.687)"/><rect x="1511" y="412" width="11" height="11" fill="#EAB4F8" rx="0" transform="matrix(-.4464 .68575 -.97954 -.73538 2778.8 -156.035)"/><rect x="850" y="226" width="12" height="30" fill="#EAB4F8" rx="0" transform="matrix(-.81217 .5339 -.57327 -.85442 1713.336 -115.207)"/><rect x="240" y="87" width="7" height="8" fill="#FCC8F8" rx="0" transform="matrix(-.9937 .0349 -.1937 -.99954 518.387 169.209)"/><rect x="175" y="1276" width="13" height="15" fill="#FCC8F8" rx="0" transform="matrix(1.03293 .67747 -.32889 .7524 792.433 223.57)"/><rect x="856" y="193" width="10" height="12" fill="#FCC8F8" rx="0" transform="matrix(.774 .79575 -.65195 .62171 351.18 -730.871)"/><rect x="479" y="322" width="7" height="14" fill="#c7f5fe" rx="0" transform="matrix(-.98886 .1397 -.12185 -.99405 1019.767 546.422)"/><rect x="615" y="449" width="10" height="22" fill="#F3F798" rx="0" transform="matrix(.79199 1 -.7273 .34433 582.277 -104.908)"/><rect x="1079" y="424" width="13" height="13" fill="#F3F798" rx="0" transform="matrix(.59765 .83526 -.7941 .5634 739.188 -585.436)"/><rect x="1167" y="924" width="12" height="33" fill="#FCC8F8" rx="0" transform="matrix(.06976 1.00613 -.99756 -.05273 2029.385 -46.071)"/><rect x="918" y="75" width="11" height="14" fill="#FCC8F8" rx="0" transform="matrix(-.82643 .61905 -.55759 -.79235 1731.905 -521.786)"/><rect x="1409" y="1205" width="11" height="32" fill="#c7f5fe" rx="0" transform="matrix(.76797 .87036 -.66908 .54386 1253.368 -347.605)"/><rect x="835" y="1323" width="12" height="14" fill="#c7f5fe" rx="0" transform="matrix(-.54522 .97542 -.8791 -.26136 2276.816 739.09)"/><rect x="1647" y="27" width="11" height="27" fill="#EAB4F8" rx="0" transform="matrix(-.38746 .89657 -.90935 -.47671 2300.565 -1130.392)"/><rect x="1469" y="1209" width="11" height="16" fill="#EAB4F8" rx="0" transform="matrix(1.06682 .39127 -.04252 .92177 373.751 -404.44)"/><rect x="729" y="730" width="11" height="11" fill="#F3F798" rx="0" transform="matrix(-.95423 .22842 -.24466 -.9894 1733.118 1165.917)"/><rect x="1513" y="781" width="8" height="18" fill="#F3F798" rx="0" transform="matrix(.86999 .78133 -.5236 .6792 673.579 -525.373)"/><rect x="1670" y="921" width="7" height="8" fill="#EAB4F8" rx="0" transform="matrix(.69346 .73314 -.71733 .68366 1247.214 -1051.32)"/><rect x="1669" y="352" width="10" height="14" fill="#EAB4F8" rx="0" transform="matrix(-.99057 .22664 -.12166 -.98169 3378.563 126.488)"/><rect x="73" y="1101" width="8" height="22" fill="#F3F798" rx="0" transform="matrix(-.54464 .7718 -.83867 -.64761 1051.539 1782.174)"/><rect x="232" y="1252" width="9" height="24" fill="#FCC8F8" rx="0" transform="matrix(-.91628 .48547 -.40683 -.87582 788.048 2268.616)"/><rect x="1446" y="751" width="11" height="18" fill="#FCC8F8" rx="0" transform="matrix(.73015 .82115 -.70655 .57498 1034.45 -767.386)"/><rect x="1015" y="18" width="8" height="20" fill="#EAB4F8" rx="0" transform="matrix(.34223 .92718 -.94027 .3746 695.619 -927.29)"/><rect x="1794" y="1357" width="7" height="15" fill="#FCC8F8" rx="0" transform="matrix(.9247 .29602 -.35366 .96823 712.409 -773.428)"/><rect x="1533" y="133" width="8" height="20" fill="#c7f5fe" rx="0" transform="matrix(1.08902 .44166 -.03134 .90554 -24.566 -476.61)"/><rect x="1824" y="87" width="10" height="15" fill="#F3F798" rx="0" transform="matrix(-.69067 .49652 -.71505 -.93382 3147.157 -95.619)"/><rect x="985" y="185" width="11" height="18" fill="#c7f5fe" rx="0" transform="matrix(.50324 .76412 -.87124 .66424 659.77 -848.6)"/><rect x="455" y="506" width="9" height="22" fill="#F3F798" rx="0" transform="matrix(.95763 .27835 -.253 .9707 221.922 -177.335)"/><rect x="712" y="522" width="13" height="15" fill="#FCC8F8" rx="0" transform="matrix(-.39713 .84691 -.92286 -.55 1623.505 111.235)"/><rect x="1870" y="1205" width="12" height="12" fill="#c7f5fe" rx="0" transform="matrix(1.0471 .44437 -.00486 .95295 141.05 -167.104)"/><rect x="1762" y="1241" width="10" height="16" fill="#EAB4F8" rx="0" transform="matrix(.8952 .44658 -.40384 .91562 437.362 -340.235)"/><rect x="364" y="1219" width="10" height="19" fill="#EAB4F8" rx="0" transform="matrix(-.56018 .7171 -.7938 -.769 1409.162 2028.492)"/><rect x="1971" y="245" width="13" height="36" fill="#F3F798" rx="0" transform="matrix(.9454 .52146 -.3443 .86785 218.657 -683.223)"/><rect x="1862" y="756" width="13" height="20" fill="#F3F798" rx="0" transform="matrix(.75712 .83718 -.6838 .56469 1085.713 -968.23)"/><rect x="625" y="741" width="13" height="34" fill="#EAB4F8" rx="0" transform="matrix(-.95575 .2087 -.295 -.98188 1582.579 1315.221)"/><rect x="504" y="1146" width="10" height="14" fill="#F3F798" rx="0" transform="matrix(-.3582 .94027 -.93316 -.34223 1787.067 1051.22)"/><rect x="842" y="125" width="13" height="27" fill="#F3F798" rx="0" transform="matrix(-.35282 .90987 -.90349 -.50435 1219.346 -320.366)"/><rect x="1072" y="73" width="7" height="20" fill="#EAB4F8" rx="0" transform="matrix(.75881 .66618 -.62818 .76635 290.807 -886.723)"/><rect x="842" y="129" width="11" height="31" fill="#c7f5fe" rx="0" transform="matrix(.73698 .76635 -.66423 .66618 303.484 -451.81)"/><rect x="1449" y="803" width="10" height="20" fill="#FCC8F8" rx="0" transform="matrix(.89945 .52654 -.40224 .87632 375.047 -355.984)"/><rect x="1225" y="550" width="10" height="16" fill="#F3F798" rx="0" transform="matrix(-.39273 .98395 -.92565 -.22716 2216.118 -698.362)"/><rect x="1054" y="161" width="9" height="11" fill="#F3F798" rx="0" transform="matrix(-.96348 .4068 -.2942 -.91368 2101.332 -93.492)"/><rect x="276" y="751" width="13" height="38" fill="#F3F798" rx="0" transform="matrix(-.2598 .9397 -.96962 -.34202 1169.866 767.892)"/><rect x="1137" y="928" width="9" height="16" fill="#FCC8F8" rx="0" transform="matrix(.96223 .10583 -.29398 1.00692 291.909 -308.078)"/><rect x="219" y="122" width="12" height="31" fill="#EAB4F8" rx="0" transform="matrix(-.86026 .58787 -.517 -.80914 480.305 112.558)"/><rect x="904" y="1306" width="7" height="14" fill="#F3F798" rx="0" transform="matrix(.19725 1.04505 -.95 .0365 1780.56 594.147)"/><rect x="1588" y="1226" width="7" height="12" fill="#FCC8F8" rx="0" transform="matrix(.889 .3639 -.4321 .94798 792.232 -795.68)"/><rect x="1981" y="498" width="11" height="21" fill="#FCC8F8" rx="0" transform="matrix(.94652 .73147 -.48447 .6821 539.619 -1256.73)"/><rect x="929" y="510" width="12" height="12" fill="#c7f5fe" rx="0" transform="matrix(.27498 .95469 -.95811 .3102 1195.032 -618.498)"/><rect x="1737" y="124" width="10" height="15" fill="#c7f5fe" rx="0" transform="matrix(.80155 .50771 -.5813 .87939 409.862 -1175.737)"/><rect x="1982" y="435" width="12" height="18" fill="#EAB4F8" rx="0" transform="matrix(-.15643 .94283 -.98769 -.43965 2737.525 -665.095)"/><rect x="803" y="1359" width="9" height="17" fill="#c7f5fe" rx="0" transform="matrix(-.97242 .08764 -.29609 -1.00168 2150.28 2751.406)"/><rect x="1216" y="1107" width="13" height="37" fill="#FCC8F8" rx="0" transform="matrix(.81899 .6491 -.56455 .77357 1076.866 -710.498)"/><rect x="1313" y="1221" width="9" height="20" fill="#FCC8F8" rx="0" transform="matrix(.4551 .85717 -.89318 .51504 1731.334 -532.33)"/><rect x="1780" y="51" width="13" height="19" fill="#F3F798" rx="0" transform="matrix(.52027 1.05504 -.91145 .07378 995.13 -1213.659)"/><rect x="10" y="372" width="9" height="25" fill="#FCC8F8" rx="0" transform="matrix(1.0426 .30415 .12236 .99484 6.956 1.73)"/><rect x="1525" y="537" width="10" height="12" fill="#F3F798" rx="0" transform="matrix(.72208 .95557 -.75476 .38607 964.975 -747.186)"/><rect x="101" y="1283" width="11" height="13" fill="#c7f5fe" rx="0" transform="matrix(-.40299 .81266 -.9042 -.65808 1269.22 2084.1)"/><rect x="717" y="709" width="13" height="13" fill="#FCC8F8" rx="0" transform="matrix(-.13659 1.01 -.98055 -.07063 1576.477 -79.292)"/><rect x="318" y="285" width="7" height="9" fill="#FCC8F8" rx="0" transform="matrix(-.9338 .12617 -.32075 -1.02756 694.887 632.561)"/><rect x="1273" y="1062" width="13" height="24" fill="#FCC8F8" rx="0" transform="matrix(-.29719 1.00613 -.97833 -.05273 2597.898 -313.814)"/><rect x="1371" y="164" width="13" height="25" fill="#EAB4F8" rx="0" transform="matrix(.7782 .69635 -.6302 .7211 421.523 -813.678)"/><rect x="188" y="389" width="13" height="38" fill="#c7f5fe" rx="0" transform="matrix(-.75262 .40451 -.69904 -.95298 666.346 770.253)"/><rect x="1137" y="70" width="10" height="27" fill="#EAB4F8" rx="0" transform="matrix(.54847 .98904 -.9242 .15665 642.182 -999.219)"/><rect x="1347" y="933" width="10" height="13" fill="#F3F798" rx="0" transform="matrix(-.19008 .97925 -.96668 -.2808 2390.818 142.16)"/><rect x="863" y="453" width="13" height="13" fill="#c7f5fe" rx="0" transform="matrix(-.03597 .98188 -1.0108 -.2087 1412.094 -222.276)"/><rect x="346" y="695" width="7" height="11" fill="#c7f5fe" rx="0" transform="matrix(.6617 .93358 -.81714 .35837 918.246 123.177)"/><rect x="1319" y="168" width="7" height="20" fill="#F3F798" rx="0" transform="matrix(-.56634 .83718 -.81248 -.56469 2215.137 -1014.528)"/><rect x="998" y="113" width="7" height="10" fill="#c7f5fe" rx="0" transform="matrix(-.09 1.00861 -.98359 -.08824 1163.878 -723.09)"/><rect x="1479" y="73" width="12" height="21" fill="#FCC8F8" rx="0" transform="matrix(-.7487 .71406 -.65175 -.71406 2642.491 -1125.953)"/><rect x="42" y="615" width="10" height="23" fill="#EAB4F8" rx="0" transform="matrix(-.62022 .73541 -.76085 -.71018 474.671 1046.852)"/><rect x="143" y="1307" width="9" height="12" fill="#FCC8F8" rx="0" transform="matrix(-.91344 .24285 -.45422 -.974 1276.099 2543.14)"/><rect x="1629" y="439" width="11" height="28" fill="#FCC8F8" rx="0" transform="matrix(-.75507 .50122 -.6873 -.86814 3277.136 -87.274)"/><rect x="1589" y="979" width="10" height="12" fill="#F3F798" rx="0" transform="matrix(.69562 1.00745 -.8574 .19583 1717.685 -445.759)"/><rect x="594" y="385" width="11" height="25" fill="#F3F798" rx="0" transform="matrix(.7844 .8834 -.66067 .5308 439.724 -193.626)"/><rect x="1944" y="786" width="10" height="19" fill="#FCC8F8" rx="0" transform="matrix(-.98164 .22776 -.13874 -.98652 4006.621 827.687)"/><rect x="258" y="420" width="12" height="30" fill="#c7f5fe" rx="0" transform="matrix(.83707 .67169 -.55913 .74598 381.33 -89.925)"/><rect x="1387" y="548" width="9" height="11" fill="#EAB4F8" rx="0" transform="matrix(-.723 .58639 -.6728 -.83745 2710.563 496.84)"/><rect x="406" y="1209" width="10" height="10" fill="#c7f5fe" rx="0" transform="matrix(.01744 1 -.9997 .01746 1596.145 788.984)"/><rect x="994" y="1080" width="10" height="24" fill="#EAB4F8" rx="0" transform="matrix(-.08722 .9977 -.99004 -.14022 2082.32 371.073)"/><rect x="454" y="791" width="10" height="10" fill="#c7f5fe" rx="0" transform="matrix(.08688 1.01108 -.9936 -.05299 1194.862 446.793)"/><rect x="1005" y="1097" width="11" height="12" fill="#c7f5fe" rx="0" transform="matrix(.87901 .63279 -.41383 .83974 428.273 -134.326)"/><rect x="1056" y="306" width="10" height="20" fill="#FCC8F8" rx="0" transform="matrix(.3634 .84691 -.94477 .55 962.313 -905.485)"/><rect x="991" y="900" width="11" height="26" fill="#F3F798" rx="0" transform="matrix(.98682 .22581 -.1541 .9781 284.625 -292.2)"/><rect x="1384" y="854" width="10" height="11" fill="#FCC8F8" rx="0" transform="matrix(.93335 .25898 -.37803 .96651 273.678 -282.433)"/><rect x="328" y="424" width="12" height="17" fill="#F3F798" rx="0" transform="matrix(-.34706 .76083 -.99072 -.70948 952.648 581.008)"/><rect x="1006" y="10" width="12" height="31" fill="#F3F798" rx="0" transform="matrix(-.52435 .55719 -.95558 -.8917 1642.325 -186.82)"/><rect x="332" y="753" width="11" height="26" fill="#FCC8F8" rx="0" transform="matrix(.48387 .86814 -.87253 .50122 881.457 65.467)"/><rect x="349" y="110" width="13" height="34" fill="#F3F798" rx="0" transform="matrix(.10663 .9636 -1.00719 .27631 434.77 -275.513)"/><rect x="606" y="1238" width="11" height="26" fill="#F3F798" rx="0" transform="matrix(.9848 0 -.28037 1.01543 239.885 -127.123)"/><rect x="902" y="569" width="7" height="19" fill="#c7f5fe" rx="0" transform="matrix(.99845 .5003 -.26941 .86655 298.114 -344.206)"/><rect x="1148" y="805" width="10" height="16" fill="#EAB4F8" rx="0" transform="matrix(-.58353 .57169 -.88409 -.84756 2750.248 1087.99)"/><rect x="1818" y="1297" width="12" height="32" fill="#F3F798" rx="0" transform="matrix(-.0356 1.0081 -.9844 -.21428 3057.834 210.36)"/><rect x="23" y="1205" width="11" height="12" fill="#c7f5fe" rx="0" transform="matrix(-.78304 .45604 -.58733 -.93501 655.406 2338.478)"/><rect x="1565" y="1235" width="8" height="18" fill="#F3F798" rx="0" transform="matrix(-.28006 1.00244 -.98288 -.05254 3075.578 -400.75)"/><rect x="1761" y="846" width="12" height="12" fill="#c7f5fe" rx="0" transform="matrix(.64279 .87939 -.76604 .50771 1283.864 -822.876)"/><rect x="1698" y="814" width="11" height="29" fill="#EAB4F8" rx="0" transform="matrix(.9128 .7627 -.48926 .68673 703.912 -646.42)"/><rect x="1605" y="38" width="9" height="11" fill="#F3F798" rx="0" transform="matrix(.17284 1.0292 -.98069 -.05394 1366.203 -1209.36)"/><rect x="1505" y="747" width="13" height="31" fill="#EAB4F8" rx="0" transform="matrix(.69289 1 -.77487 .32492 1186.794 -505.635)"/><rect x="1297" y="1054" width="10" height="14" fill="#EAB4F8" rx="0" transform="matrix(.27595 .97452 -.96244 .22499 2001.702 -423.806)"/><rect x="1154" y="594" width="12" height="14" fill="#EAB4F8" rx="0" transform="matrix(.6937 .87247 -.69568 .56659 708.125 -418.958)"/><rect x="1654" y="464" width="7" height="11" fill="#F3F798" rx="0" transform="matrix(.50069 .89114 -.86704 .45406 1265.497 -1249.681)"/><rect x="192" y="611" width="11" height="28" fill="#EAB4F8" rx="0" transform="matrix(.8108 .84455 -.63716 .56966 517.046 140.554)"/><rect x="1094" y="531" width="12" height="33" fill="#EAB4F8" rx="0" transform="matrix(1.09103 .46789 .004 .91828 102.566 -195.677)"/><rect x="748" y="794" width="11" height="15" fill="#EAB4F8" rx="0" transform="matrix(.6525 1.0262 -.81178 .25586 1023.994 82.632)"/><rect x="275" y="1292" width="12" height="23" fill="#F3F798" rx="0" transform="matrix(-.45278 .90099 -.88906 -.43944 1634.4 1603.485)"/><rect x="890" y="798" width="13" height="16" fill="#FCC8F8" rx="0" transform="matrix(-.996 .01746 -.22928 -1 2133.924 1612)"/><rect x="1433" y="512" width="11" height="29" fill="#EAB4F8" rx="0" transform="matrix(.8669 .29457 -.55934 .96349 430.555 -581.136)"/><rect x="1256" y="1329" width="13" height="21" fill="#FCC8F8" rx="0" transform="matrix(-.17217 .94505 -.97417 -.46093 2723.673 1174.005)"/><rect x="28" y="1277" width="9" height="16" fill="#EAB4F8" rx="0" transform="matrix(-1.0321 .45965 -.14995 -.90211 33.057 2424.13)"/><rect x="655" y="1062" width="9" height="20" fill="#c7f5fe" rx="0" transform="matrix(.71073 .62942 -.7111 .77726 820.033 -164.816)"/><rect x="1656" y="1153" width="12" height="25" fill="#c7f5fe" rx="0" transform="matrix(-.36765 .7506 -.98944 -.69994 3699.398 1117.498)"/><rect x="921" y="232" width="12" height="21" fill="#EAB4F8" rx="0" transform="matrix(.98715 .17495 -.11742 .9922 63.072 -274.111)"/><rect x="1609" y="295" width="10" height="24" fill="#FCC8F8" rx="0" transform="matrix(-.94307 .59511 -.38233 -.8191 3249 -657.68)"/><rect x="715" y="777" width="12" height="26" fill="#c7f5fe" rx="0" transform="matrix(-.58383 .53857 -.88511 -.89633 2001.215 1330.225)"/><rect x="1297" y="1010" width="8" height="10" fill="#c7f5fe" rx="0" transform="matrix(-.09242 .92839 -1.028 -.49363 2590.444 730.926)"/><rect x="1839" y="69" width="12" height="15" fill="#FCC8F8" rx="0" transform="matrix(-.95198 .10531 -.43793 -1.002 3699.327 185.386)"/><rect x="494" y="707" width="13" height="36" fill="#F3F798" rx="0" transform="matrix(1.04638 .17535 .23157 .99449 22.01 -13.427)"/><rect x="441" y="437" width="9" height="15" fill="#F3F798" rx="0" transform="matrix(.61299 .8215 -.77193 .59685 593.322 -265.332)"/><rect x="1856" y="1346" width="9" height="26" fill="#c7f5fe" rx="0" transform="matrix(-.99398 .10478 -.08643 -.99695 3696.965 2649.004)"/><rect x="1397" y="757" width="7" height="13" fill="#c7f5fe" rx="0" transform="matrix(-.86371 .7756 -.5646 -.6508 2965.069 -47.65)"/><rect x="1121" y="475" width="7" height="7" fill="#FCC8F8" rx="0" transform="matrix(.94366 .33166 -.27454 .96322 96.76 -136.772)"/><rect x="1632" y="355" width="7" height="20" fill="#F3F798" rx="0" transform="matrix(.96813 .27907 -.20702 .97324 73.088 -187.62)"/><rect x="1313" y="240" width="10" height="21" fill="#c7f5fe" rx="0" transform="matrix(-.33583 .91311 -.93855 -.4258 2014.58 -1008.153)"/><rect x="971" y="1374" width="13" height="22" fill="#EAB4F8" rx="0" transform="matrix(.80572 .70754 -.60763 .70754 1180.639 -252.423)"/><rect x="1942" y="437" width="9" height="14" fill="#FCC8F8" rx="0" transform="matrix(.75135 .99384 -.73273 .36173 946.144 -980.88)"/><rect x="1353" y="1329" width="8" height="20" fill="#EAB4F8" rx="0" transform="matrix(-.03847 .95814 -1.02892 -.3678 2960.595 844.572)"/><rect x="1342" y="913" width="13" height="25" fill="#EAB4F8" rx="0" transform="matrix(-.71735 .461 -.76135 -.90475 3225.59 1378.974)"/><rect x="731" y="558" width="7" height="12" fill="#c7f5fe" rx="0" transform="matrix(-.99738 .15665 -.08647 -.98904 1441.87 1045.255)"/><rect x="409" y="775" width="11" height="31" fill="#F3F798" rx="0" transform="matrix(.4776 .97983 -.9015 .2443 1018.387 249.495)"/><rect x="1453" y="1034" width="12" height="14" fill="#EAB4F8" rx="0" transform="matrix(-.86289 .71242 -.54078 -.71242 3190.325 564.067)"/><rect x="822" y="129" width="12" height="19" fill="#FCC8F8" rx="0" transform="matrix(-.98776 .08764 -.12076 -1.00168 1646.817 291.697)"/><rect x="399" y="920" width="8" height="8" fill="#EAB4F8" rx="0" transform="matrix(-.34277 .8322 -.97043 -.56133 1743.83 1072.032)"/><rect x="744" y="576" width="10" height="13" fill="#EAB4F8" rx="0" transform="matrix(.7789 .74472 -.59063 .71916 427.33 -193.51)"/><rect x="493" y="602" width="13" height="37" fill="#F3F798" rx="0" transform="matrix(-.98227 -.23402 .01854 -1.01364 925.23 1509.582)"/><rect x="1586" y="33" width="10" height="15" fill="#F3F798" rx="0" transform="matrix(.95403 .46593 -.27385 .91444 69.996 -370.522)"/><rect x="1832" y="553" width="8" height="9" fill="#F3F798" rx="0" transform="matrix(.22495 1.01404 -.97437 .05314 1966.201 -1010.16)"/><rect x="416" y="563" width="11" height="21" fill="#FCC8F8" rx="0" transform="matrix(-.71671 .84497 -.71804 -.54873 1089.742 480.288)"/><rect x="1784" y="366" width="8" height="15" fill="#EAB4F8" rx="0" transform="matrix(1.00197 -.07083 -.211 1.01295 69.17 -193.462)"/><rect x="675" y="1303" width="8" height="16" fill="#F3F798" rx="0" transform="matrix(.97013 -.14054 .21256 1 0 0)"/><rect x="924" y="277" width="13" height="16" fill="#FCC8F8" rx="0" transform="matrix(1.01394 .17495 .03447 .9922 12.138 -46.32)"/><rect x="45" y="81" width="10" height="23" fill="#FCC8F8" rx="0" transform="matrix(.38386 1.0457 -.9563 0 128.695 55.502)"/><rect x="1631" y="565" width="9" height="13" fill="#EAB4F8" rx="0" transform="matrix(.04616 1.0292 -.97405 -.05394 1979.038 -673.157)"/><rect x="836" y="202" width="13" height="14" fill="#FCC8F8" rx="0" transform="matrix(1.06086 .46593 -.06417 .91444 40.568 -180.16)"/><rect x="189" y="1218" width="9" height="9" fill="#F3F798" rx="0" transform="matrix(.98018 .60578 -.30166 .83378 483.79 134.226)"/><rect x="705" y="212" width="11" height="28" fill="#F3F798" rx="0" transform="matrix(1.00446 .07028 .13575 1.00506 11.235 -138.315)"/><rect x="224" y="883" width="7" height="12" fill="#c7f5fe" rx="0" transform="matrix(1.02166 .4499 -.128 .92244 207.822 19.124)"/><rect x="261" y="207" width="7" height="8" fill="#FCC8F8" rx="0" transform="matrix(.9084 .85658 -.53137 .59978 177.367 -61.254)"/><rect x="1820" y="780" width="7" height="13" fill="#F3F798" rx="0" transform="matrix(-.87692 .19319 -.66495 -.99386 4294.938 1504.71)"/><rect x="687" y="101" width="7" height="15" fill="#FCC8F8" rx="0" transform="matrix(.35715 1 -.93058 .19438 540.618 -468.87)"/><rect x="335" y="218" width="7" height="8" fill="#EAB4F8" rx="0" transform="matrix(-.15643 .9657 -.98769 -.29525 610.72 8.227)"/><rect x="1907" y="185" width="11" height="12" fill="#c7f5fe" rx="0" transform="matrix(.12228 .9974 -.98324 .15797 1858.258 -2015.475)"/><rect x="87" y="179" width="8" height="10" fill="#c7f5fe" rx="0" transform="matrix(-.91986 .05503 -.62017 -1.05002 342.067 401.764)"/><rect x="1681" y="49" width="13" height="23" fill="#c7f5fe" rx="0" transform="matrix(1.01788 .05237 .32661 .99924 -8.809 -29.396)"/><rect x="299" y="1069" width="7" height="10" fill="#EAB4F8" rx="0" transform="matrix(.96223 .30269 -.15646 .99004 37.643 .19)"/><rect x="656" y="1009" width="10" height="20" fill="#FCC8F8" rx="0" transform="matrix(-.87504 .68241 -.52702 -.7318 1600.83 1290.545)"/><rect x="957" y="35" width="10" height="21" fill="#F3F798" rx="0" transform="matrix(.33369 1.0489 -.97671 -.07335 716.76 -647.633)"/><rect x="1510" y="518" width="7" height="17" fill="#c7f5fe" rx="0" transform="matrix(1.10702 .68962 -.22062 .7659 247.866 -543.118)"/><rect x="1008" y="814" width="12" height="16" fill="#F3F798" rx="0" transform="matrix(.66924 1.01265 -.84525 .21525 1262.667 -110.062)"/><rect x="607" y="425" width="12" height="33" fill="#FCC8F8" rx="0" transform="matrix(-.67814 .48845 -.8239 -.88119 1530.917 606.391)"/><rect x="1391" y="664" width="13" height="32" fill="#EAB4F8" rx="0" transform="matrix(.95631 .27716 -.27302 .96656 302.736 -511.467)"/><rect x="459" y="813" width="11" height="32" fill="#FCC8F8" rx="0" transform="matrix(-.9063 .26281 -.42262 -.98083 1235.83 1601.933)"/><rect x="1988" y="497" width="9" height="13" fill="#F3F798" rx="0" transform="matrix(.7909 .68241 -.61725 .7318 780.704 -1294.25)"/><rect x="635" y="140" width="10" height="20" fill="#c7f5fe" rx="0" transform="matrix(-.96257 .12204 -.35476 -.9939 1342.653 187.442)"/><rect x="68" y="426" width="8" height="14" fill="#FCC8F8" rx="0" transform="matrix(-.8127 .4027 -.56869 -.94868 361.008 832.738)"/><rect x="992" y="219" width="7" height="9" fill="#c7f5fe" rx="0" transform="matrix(.9572 .61905 -.3902 .79235 187.673 -465.226)"/><rect x="942" y="1325" width="7" height="12" fill="#FCC8F8" rx="0" transform="matrix(-.0286 .92244 -1.0695 -.47 2704.029 1337.758)"/><rect x="153" y="919" width="10" height="28" fill="#F3F798" rx="0" transform="matrix(-.11493 .91311 -1.04156 -.4258 1350.374 1205.392)"/><rect x="1217" y="526" width="10" height="29" fill="#F3F798" rx="0" transform="matrix(-.9362 .14132 -.4147 -1.00554 2669.644 1126.775)"/><rect x="789" y="461" width="8" height="8" fill="#F3F798" rx="0" transform="matrix(-.98767 .27907 -.13886 -.97324 1646.72 570.655)"/><rect x="1267" y="539" width="9" height="21" fill="#EAB4F8" rx="0" transform="matrix(.48534 1 -.92313 .15838 1294.046 -607.646)"/><rect x="580" y="87" width="12" height="31" fill="#c7f5fe" rx="0" transform="matrix(-.63296 .84921 -.78205 -.53065 1032.054 -371.458)"/><rect x="1989" y="1304" width="12" height="32" fill="#EAB4F8" rx="0" transform="matrix(.92902 .61147 -.35671 .84162 579.439 -438.77)"/><rect x="235" y="571" width="13" height="32" fill="#EAB4F8" rx="0" transform="matrix(-.0697 .99497 -.9965 -.12217 832.736 435.314)"/><rect x="421" y="1277" width="10" height="18" fill="#EAB4F8" rx="0" transform="matrix(-.9648 .19084 -.27656 -.98178 1283.113 2474.704)"/><rect x="1233" y="836" width="7" height="9" fill="#c7f5fe" rx="0" transform="matrix(-.98207 .22499 -.1909 -.97452 2596.994 1359.805)"/><rect x="1508" y="404" width="13" height="19" fill="#c7f5fe" rx="0" transform="matrix(-.97526 .0872 -.31943 -.9968 3220.244 640.712)"/><rect x="380" y="1050" width="9" height="14" fill="#c7f5fe" rx="0" transform="matrix(-.54043 .8336 -.83508 -.56227 1599.8 1290.39)"/><rect x="352" y="300" width="8" height="15" fill="#EAB4F8" rx="0" transform="matrix(-.95365 -.01846 -.45763 -1.05746 896.666 761.82)"/><rect x="628" y="1016" width="7" height="15" fill="#EAB4F8" rx="0" transform="matrix(-.0349 1.00183 -.9994 .03498 1676.416 310.878)"/><rect x="1584" y="168" width="9" height="21" fill="#FCC8F8" rx="0" transform="matrix(-.0652 .91091 -1.06458 -.46413 1991.806 -847.99)"/><rect x="355" y="101" width="9" height="11" fill="#F3F798" rx="0" transform="matrix(-.14668 .9176 -1.0214 -.42789 543.979 -120.87)"/><rect x="802" y="1005" width="13" height="19" fill="#F3F798" rx="0" transform="matrix(.98756 .55953 -.3231 .82954 597.82 -251.22)"/><rect x="1131" y="385" width="10" height="19" fill="#EAB4F8" rx="0" transform="matrix(.96246 .30573 -.12278 1 0 0)"/></svg>